<svg width="178" height="178" viewBox="0 0 178 178" fill="none" xmlns="http://www.w3.org/2000/svg">
<path d="M25.15 119.147C25.7329 120.774 28.0293 120.809 28.2886 119.196C29.6967 110.444 34.768 98.4182 51.3176 92.949C78.9157 83.8288 94.0464 79.9419 94.0464 79.9419C94.0464 79.9419 85.94 94.0288 84.1793 112.001C82.4849 129.298 74.8124 145.511 57.9794 148.576C56.3996 148.864 56.4371 151.105 58.0343 151.703C70.4303 156.35 87.7602 158.135 104.305 143.747C109.429 139.419 115.449 132.206 120.817 120.874C127.566 106.458 127.79 96.8069 127.184 91.9593C127.002 90.5092 125.172 89.8028 124.277 90.8313C113.653 103.044 105.923 101.109 109.702 91.8285C111.212 88.1217 115.083 82.9698 120.576 77.4761C129.723 68.3299 136.153 55.9295 137.222 41.6973C137.5 37.9962 137.357 34.1345 136.644 30.2514C136.387 28.8455 134.604 28.2168 133.746 29.2266C128.051 35.9323 109.824 53.244 71.0564 56.9349C35.462 60.7252 26.5003 82.0108 24.5907 88.2935C20.924 100.321 22.1468 110.761 25.15 119.147Z" fill="#8D27B3"/>
<ellipse cx="63.2267" cy="110.172" rx="47.0539" ry="41.8257" transform="rotate(45 63.2267 110.172)" fill="#8D27B3"/>
<path d="M52.19 146.252C50.9588 145.819 50.9459 144.077 52.1709 143.871C58.8204 142.75 67.9755 138.831 72.2234 126.241C79.3071 105.246 82.346 93.7422 82.346 93.7422C82.346 93.7422 71.6091 99.9766 57.9616 101.419C44.8267 102.807 32.4792 108.725 30.054 121.516C29.8263 122.716 28.1262 122.701 27.6815 121.492C24.2291 112.114 22.9769 98.975 33.9924 86.3357C37.3072 82.4223 42.8159 77.8115 51.4457 73.6713C62.4245 68.4653 69.7489 68.2377 73.4236 68.6692C74.5228 68.7982 75.048 70.1832 74.2623 70.8681C64.9324 79.0015 66.3549 84.8556 73.4193 81.9329C76.2409 80.7655 80.173 77.798 84.3741 73.5969C91.3682 66.6028 100.815 61.6505 111.621 60.7548C114.431 60.5219 117.36 60.6079 120.303 61.1253C121.368 61.3126 121.834 62.6616 121.063 63.3182C115.941 67.6791 102.697 81.6124 99.6673 111.05C96.5805 138.081 80.3762 145.007 75.5977 146.493C66.4496 149.347 58.5356 148.481 52.19 146.252Z" fill="#C52BFF"/>
</svg>
