<svg width="560" height="193" viewBox="0 0 560 193" fill="none" xmlns="http://www.w3.org/2000/svg">
<path d="M0 157.745C0 118.145 32.1022 86.0427 71.7023 86.0427H559.278V86.0427C559.278 125.643 527.176 157.745 487.576 157.745H0V157.745Z" fill="#213743"/>
<path d="M153.051 157.575C151.789 157.804 149.896 158.091 147.372 158.435C144.963 158.894 142.497 159.123 139.973 159.123C137.449 159.123 135.154 158.951 133.089 158.607C131.139 158.263 129.476 157.575 128.099 156.542C126.722 155.51 125.632 154.133 124.829 152.412C124.141 150.576 123.797 148.225 123.797 145.357V45.5469C125.059 45.3175 126.894 45.0307 129.303 44.6865C131.827 44.2276 134.351 43.9982 136.875 43.9982C139.399 43.9982 141.636 44.1703 143.587 44.5144C145.652 44.8586 147.372 45.5469 148.749 46.5794C150.126 47.612 151.158 49.046 151.847 50.8816C152.65 52.6024 153.051 54.8969 153.051 57.765V157.575Z" fill="#C52BFF"/>
<path d="M201.454 157.575C200.192 157.804 198.299 158.091 195.776 158.435C193.366 158.894 190.9 159.123 188.376 159.123C185.852 159.123 183.557 158.951 181.492 158.607C179.542 158.263 177.879 157.575 176.502 156.542C175.125 155.51 174.035 154.133 173.232 152.412C172.544 150.576 172.2 148.225 172.2 145.357V75.3177C173.462 75.0883 175.297 74.8015 177.707 74.4573C180.23 73.9984 182.754 73.769 185.278 73.769C187.802 73.769 190.039 73.941 191.99 74.2852C194.055 74.6294 195.776 75.3177 197.152 76.3502C198.529 77.3828 199.561 78.8168 200.25 80.6524C201.053 82.3732 201.454 84.6677 201.454 87.5358V157.575Z" fill="#C52BFF"/>
<path d="M273.081 104.744C273.081 101.188 272.048 98.6066 269.983 97.0005C268.033 95.2796 265.337 94.4192 261.895 94.4192C259.601 94.4192 257.306 94.706 255.012 95.2796C252.832 95.8533 250.939 96.7137 249.333 97.8609V157.575C248.186 157.919 246.35 158.263 243.826 158.607C241.417 158.951 238.893 159.123 236.255 159.123C233.731 159.123 231.436 158.951 229.371 158.607C227.421 158.263 225.757 157.575 224.381 156.542C223.004 155.51 221.914 154.133 221.111 152.412C220.423 150.576 220.079 148.225 220.079 145.357V93.7309C220.079 90.6333 220.71 88.1094 221.972 86.1591C223.348 84.2088 225.184 82.4306 227.478 80.8245C231.379 78.0711 236.255 75.834 242.106 74.1131C248.071 72.3923 254.668 71.5318 261.895 71.5318C274.859 71.5318 284.84 74.3999 291.838 80.1361C298.836 85.7576 302.335 93.6161 302.335 103.712V157.575C301.188 157.919 299.353 158.263 296.829 158.607C294.42 158.951 291.896 159.123 289.257 159.123C286.733 159.123 284.439 158.951 282.374 158.607C280.423 158.263 278.76 157.575 277.383 156.542C276.006 155.51 274.916 154.133 274.113 152.412C273.425 150.576 273.081 148.225 273.081 145.357V104.744Z" fill="#C52BFF"/>
<path d="M402.146 142.603C401.573 147.995 399.967 152.125 397.328 154.993C394.804 157.861 391.076 159.295 386.142 159.295C382.471 159.295 379.202 158.435 376.334 156.714C373.465 154.879 370.368 151.838 367.041 147.594L350.004 126.255V157.575C348.743 157.804 346.85 158.091 344.326 158.435C341.916 158.894 339.45 159.123 336.926 159.123C334.402 159.123 332.108 158.951 330.043 158.607C328.092 158.263 326.429 157.575 325.052 156.542C323.675 155.51 322.586 154.133 321.782 152.412C321.094 150.576 320.75 148.225 320.75 145.357V45.719C322.012 45.3748 323.847 45.0307 326.257 44.6865C328.781 44.2276 331.305 43.9982 333.828 43.9982C336.352 43.9982 338.589 44.1703 340.54 44.5144C342.605 44.8586 344.326 45.5469 345.702 46.5794C347.079 47.612 348.112 49.046 348.8 50.8816C349.603 52.6024 350.004 54.8969 350.004 57.765V103.196L379.603 72.9085C385.569 72.9085 390.33 74.2278 393.886 76.8665C397.557 79.5051 399.393 82.8321 399.393 86.8474C399.393 88.5683 399.106 90.1744 398.533 91.6658C397.959 93.0425 397.041 94.4766 395.779 95.968C394.632 97.4594 393.083 99.0655 391.133 100.786C389.297 102.393 387.118 104.285 384.594 106.465L374.613 115.069L402.146 142.603Z" fill="#C52BFF"/>
<path d="M65.4137 101.066C70.0679 102.313 73.8961 102.21 76.8981 100.758C80.0407 99.2248 82.2059 96.2418 83.3936 91.8092C84.5219 87.5983 84.0532 84.0283 81.9875 81.0994C80.0623 78.0894 76.6064 75.9163 71.6198 74.5801C69.8467 74.105 68.3359 73.7596 67.0872 73.5438C65.9791 73.2468 64.7858 73.0459 63.5075 72.9409L56.604 98.7053L65.4137 101.066ZM42.4732 152.107C41.1651 152.113 39.1368 151.926 36.3882 151.545C33.7503 151.195 31.1571 150.678 28.6083 149.995C26.0596 149.312 23.8473 148.482 21.9714 147.504C20.1766 146.667 18.748 145.572 17.6854 144.218C16.6229 142.864 15.9967 141.212 15.8069 139.261C15.6171 137.31 15.9082 134.893 16.6802 132.012L37.6581 53.7218C38.2816 51.3947 39.3662 49.785 40.9118 48.8926C42.5979 47.9192 44.653 47.3415 47.0771 47.1597C51.2011 46.8394 55.7199 47.0407 60.6334 47.7634C65.6874 48.405 70.6523 49.379 75.5281 50.6855C90.8205 54.7831 101.636 61.1847 107.973 69.8903C114.311 78.5959 115.98 88.5449 112.981 99.7372C111.526 105.167 109.318 109.861 106.358 113.818C103.537 117.695 99.979 120.779 95.6827 123.073C91.5269 125.285 86.6073 126.579 80.9239 126.957C75.381 127.253 69.2298 126.496 62.4701 124.684L50.6683 121.522L42.4732 152.107Z" fill="#C52BFF"/>
<path d="M175.125 39.8667C172.257 42.8495 170.823 46.5206 170.823 50.8801C170.823 55.2397 172.257 58.9108 175.125 61.8936C178.107 64.8764 182.008 66.3678 186.826 66.3678C191.645 66.3678 195.488 64.8764 198.356 61.8936C201.339 58.9108 202.83 55.2397 202.83 50.8801C202.83 46.5206 201.339 42.8495 198.356 39.8667C195.488 36.8839 191.645 35.3925 186.826 35.3925C182.008 35.3925 178.107 36.8839 175.125 39.8667Z" fill="#8D27B3"/>
<path d="M385.463 129.641C386.098 131.411 388.596 131.449 388.878 129.695C390.41 120.171 395.928 107.086 413.936 101.135C443.964 91.2119 460.428 86.9827 460.428 86.9827C460.428 86.9827 451.607 102.31 449.692 121.865C447.848 140.686 439.5 158.327 421.184 161.662C419.465 161.975 419.506 164.413 421.244 165.064C434.732 170.12 453.588 172.063 471.59 156.407C477.165 151.698 483.716 143.849 489.556 131.52C496.899 115.834 497.144 105.333 496.484 100.058C496.286 98.4807 494.294 97.7121 493.321 98.8311C481.761 112.12 473.35 110.014 477.463 99.9162C479.105 95.883 483.317 90.2773 489.294 84.2997C499.246 74.348 506.242 60.8555 507.406 45.3697C507.708 41.3427 507.552 37.1408 506.777 32.9158C506.497 31.3861 504.557 30.702 503.624 31.8007C497.428 39.0969 477.595 57.9335 435.413 61.9493C396.683 66.0735 386.933 89.2338 384.855 96.0699C380.865 109.157 382.196 120.516 385.463 129.641Z" fill="#8D27B3"/>
<ellipse cx="426.894" cy="119.875" rx="51.1982" ry="45.5095" transform="rotate(45 426.894 119.875)" fill="#8D27B3"/>
<path d="M414.885 159.133C413.545 158.662 413.531 156.766 414.864 156.542C422.099 155.323 432.061 151.058 436.683 137.36C444.39 114.516 447.697 101.998 447.697 101.998C447.697 101.998 436.014 108.782 421.165 110.351C406.873 111.862 393.438 118.301 390.799 132.218C390.551 133.524 388.702 133.508 388.218 132.193C384.461 121.988 383.099 107.692 395.085 93.9396C398.691 89.6815 404.685 84.6646 414.075 80.1598C426.021 74.4953 433.99 74.2476 437.989 74.7171C439.185 74.8575 439.756 76.3645 438.901 77.1097C428.75 85.9595 430.297 92.3291 437.984 89.1491C441.054 87.8788 445.332 84.65 449.904 80.0789C457.514 72.4688 467.793 67.0803 479.55 66.1057C482.608 65.8523 485.795 65.9459 488.996 66.5089C490.155 66.7126 490.663 68.1804 489.824 68.8949C484.251 73.6399 469.841 88.8003 466.544 120.831C463.185 150.243 445.554 157.779 440.354 159.396C430.4 162.5 421.789 161.558 414.885 159.133Z" fill="#C52BFF"/>
</svg>
